<svg xmlns="http://www.w3.org/2000/svg" viewBox="0 0 64 64" role="img" aria-labelledby="title desc">
  <title id="title">ArmRank Crest</title>
  <desc id="desc">A shield with two crossing forearms to represent arm wrestling.</desc>
  <defs>
    <linearGradient id="gold" x1="0%" y1="0%" x2="0%" y2="100%">
      <stop offset="0%" stop-color="#d7b43a"/>
      <stop offset="100%" stop-color="#b99322"/>
    </linearGradient>
    <linearGradient id="teal" x1="0%" y1="0%" x2="100%" y2="100%">
      <stop offset="0%" stop-color="#0a2a40"/>
      <stop offset="100%" stop-color="#081c33"/>
    </linearGradient>
    <filter id="softGlow" x="-50%" y="-50%" width="200%" height="200%">
      <feGaussianBlur stdDeviation="1.6" result="blur"/>
      <feMerge>
        <feMergeNode in="blur"/>
        <feMergeNode in="SourceGraphic"/>
      </feMerge>
    </filter>
  </defs>

  <!-- Shield background -->
  <g>
    <path d="M32 4c6.4 4.1 12.7 5.8 20 6.6v19.8c0 9.1-5.2 15.9-10.8 20.4C36.3 55.9 34 58 32 60c-2-2-4.3-4.1-9.2-9.2C17.2 46.3 12 39.5 12 30.4V10.6C19.3 9.8 25.6 8.1 32 4z" fill="url(#teal)" stroke="#123956" stroke-width="1.25"/>
    <path d="M32 6.6c5.7 3.5 11.3 5.1 18 5.9v17.9c0 7.9-4.6 13.8-9.4 17.8-4.3 3.5-6.5 5.7-8.6 7.8-2.1-2.1-4.3-4.3-8.6-7.8-4.8-4-9.4-9.9-9.4-17.8V12.5c6.7-.8 12.3-2.4 18-5.9z" fill="#0b2742" opacity=".6"/>
  </g>

  <!-- Crossing forearms -->
  <g filter="url(#softGlow)">
    <!-- Left forearm -->
    <g transform="rotate(-28 24 32)">
      <rect x="8" y="28" width="26" height="8" rx="4" fill="url(#gold)" stroke="#96791e" stroke-width="0.7"/>
      <circle cx="8" cy="32" r="4.2" fill="url(#gold)" stroke="#96791e" stroke-width="0.7"/>
      <rect x="30.5" y="26.8" width="7.5" height="10.4" rx="2.6" fill="#e6ecfa" opacity=".9" stroke="#9eabc9" stroke-width="0.6"/>
    </g>

    <!-- Right forearm -->
    <g transform="rotate(28 40 32)">
      <rect x="30" y="28" width="26" height="8" rx="4" fill="url(#gold)" stroke="#96791e" stroke-width="0.7"/>
      <circle cx="56" cy="32" r="4.2" fill="url(#gold)" stroke="#96791e" stroke-width="0.7"/>
      <rect x="26" y="26.8" width="7.5" height="10.4" rx="2.6" fill="#e6ecfa" opacity=".9" stroke="#9eabc9" stroke-width="0.6"/>
    </g>
  </g>

  <!-- Accent spark -->
  <circle cx="32" cy="16" r="2.2" fill="#148296" opacity="0.9"/>
</svg> 